# xmcd
#
# Track frame offsets: 
#        150
#        17683
#        37130
#        71898
#        94580
#        139457
#        153621
#        167048
#        205307
#        242728
#        261566
#        287026
#        310977
#
# Disc length: 4799 seconds
#
# Revision: 0
# Processed by: cddbd v1.5.2PL0 Copyright (c) Steve Scherf et al.
# Submitted via: ExactAudioCopy v0.95a3
#
DISCID=ca12bd0d
DTITLE=Stevie Ray Vaughan - 83 10-20
DYEAR=1983
DGENRE=Blues
TTITLE0=Testify
TTITLE1=So Excited
TTITLE2=Voodoo Child (Slight Return)
TTITLE3=Pride and Joy
TTITLE4=Texas Flood
TTITLE5=Love Struck Baby
TTITLE6=Mary Had a Little Lamb
TTITLE7=Tin Pan Alley
TTITLE8=Little Wing- Third Stone from the Sun
TTITLE9=Lenny 
TTITLE10=Rude Mood
TTITLE11=Tell Me
TTITLE12=Scuttle Buttin' - "In the Open"
EXTD=
EXTT0=
EXTT1=
EXTT2=
EXTT3=
EXTT4=
EXTT5=
EXTT6=
EXTT7=
EXTT8=
EXTT9=
EXTT10=
EXTT11=
EXTT12=
PLAYORDER=
